<?xml version="1.0" encoding="utf-8"?>
<!DOCTYPE svg PUBLIC "-//W3C//DTD SVG 1.0//EN" "http://www.w3.org/TR/2001/REC-SVG-20010904/DTD/svg10.dtd">
<svg version="1.0" xmlns="http://www.w3.org/2000/svg" xmlns:xlink="http://www.w3.org/1999/xlink" x="0px" y="0px"
	 width="319.84px" height="64.684px" viewBox="0 0 319.84 64.684" enable-background="new 0 0 319.84 64.684" xml:space="preserve">
<polygon points="65.619,50.241 59.156,44.206 30.775,44.206 37.238,50.241 "/>
<polygon points="37.238,29.085 30.775,35.12 59.156,35.12 65.619,29.085 "/>
<polygon points="65.617,19.997 59.156,13.96 30.777,13.96 37.238,19.997 "/>
<path d="M27.789,25.97l-4.27-4.271L7.689,37.53c-0.568,0.567-0.882,1.328-0.88,2.134c0,0.808,0.312,1.565,0.88,2.133
	l15.83,15.83l4.27-4.267L14.094,39.663L27.789,25.97z"/>
<path d="M88.705,22.407L72.881,6.575l-4.268,4.269L82.301,24.54L68.613,38.235l4.268,4.269l15.824-15.827
	c0.57-0.572,0.885-1.331,0.885-2.139C89.588,23.731,89.275,22.976,88.705,22.407"/>
<path d="M123.176,23.817c1.314,1.099,1.972,2.791,1.972,5.077s-0.671,3.96-2.012,5.021
	c-1.341,1.063-3.398,1.592-6.17,1.592h-3.348v5.537h-3.185V22.17h6.479C119.775,22.17,121.862,22.721,123.176,23.817
	 M120.922,31.607c0.639-0.675,0.958-1.665,0.958-2.97c0-1.306-0.404-2.228-1.215-2.768c-0.809-0.54-2.079-0.81-3.806-0.81h-3.241
	v7.56h3.7C119.081,32.621,120.282,32.283,120.922,31.607"/>
<path d="M136.379,36.725c0.863,1.008,2.033,1.512,3.51,1.512c1.474,0,2.646-0.504,3.51-1.512
	c0.863-1.009,1.294-2.377,1.294-4.104v-10.45h3.188v10.584c0,2.718-0.748,4.811-2.242,6.276c-1.494,1.467-3.41,2.201-5.75,2.201
	c-2.34,0-4.258-0.734-5.752-2.201c-1.494-1.467-2.241-3.56-2.241-6.276V22.171h3.186V32.62
	C135.083,34.348,135.515,35.717,136.379,36.725"/>
<path d="M171.18,28.3c0,3.114-1.355,5.076-4.076,5.886l4.941,6.857h-4.051l-4.508-6.345H159.3v6.345h-3.185V22.171
	h7.018c2.88,0,4.943,0.486,6.186,1.458C170.561,24.601,171.18,26.158,171.18,28.3 M166.942,30.973
	c0.646-0.559,0.973-1.454,0.973-2.688c0-1.231-0.334-2.079-1-2.538s-1.854-0.688-3.563-0.688h-4.051v6.75h3.969
	C165.069,31.81,166.293,31.531,166.942,30.973"/>
<polygon points="192.268,22.171 192.268,25.168 182.198,25.168 182.198,30.163 191.243,30.163 191.243,32.998
	182.198,32.998 182.198,38.047 192.592,38.047 192.592,41.044 179.012,41.044 179.012,22.171 "/>
<path d="M205.62,24.655c-0.929,0-1.688,0.188-2.281,0.567c-0.594,0.378-0.892,0.949-0.892,1.715
	c0,0.765,0.298,1.35,0.892,1.755c0.595,0.405,1.856,0.841,3.793,1.309c1.936,0.468,3.393,1.125,4.375,1.972
	c0.979,0.847,1.471,2.093,1.471,3.739c0,1.647-0.621,2.983-1.863,4.01c-1.24,1.025-2.871,1.538-4.887,1.538
	c-2.953,0-5.572-1.018-7.857-3.051l1.998-2.402c1.908,1.656,3.891,2.483,5.939,2.483c1.027,0,1.842-0.22,2.445-0.661
	c0.602-0.44,0.904-1.024,0.904-1.755c0-0.729-0.285-1.296-0.852-1.701c-0.567-0.404-1.543-0.773-2.93-1.105
	c-1.387-0.334-2.44-0.641-3.158-0.918c-0.721-0.279-1.36-0.645-1.918-1.094c-1.116-0.847-1.674-2.143-1.674-3.889
	c0-1.745,0.635-3.092,1.902-4.036c1.271-0.944,2.84-1.418,4.711-1.418c1.205,0,2.402,0.198,3.594,0.595
	c1.187,0.396,2.213,0.954,3.076,1.674l-1.699,2.402c-0.561-0.503-1.315-0.918-2.27-1.241
	C207.486,24.817,206.547,24.655,205.62,24.655"/>
<path d="M228.771,38.154c1.099,0,2.043-0.184,2.836-0.553c0.791-0.369,1.619-0.959,2.481-1.77l2.054,2.106
	c-1.998,2.213-4.425,3.319-7.276,3.319s-5.22-0.918-7.101-2.754c-1.882-1.836-2.821-4.157-2.821-6.966
	c0-2.808,0.959-5.147,2.875-7.02c1.918-1.872,4.338-2.809,7.264-2.809s5.369,1.08,7.33,3.24l-2.025,2.214
	c-0.899-0.864-1.75-1.467-2.551-1.809s-1.742-0.514-2.822-0.514c-1.908,0-3.51,0.617-4.805,1.851
	c-1.297,1.232-1.945,2.808-1.945,4.725s0.646,3.52,1.933,4.807C225.482,37.512,227.008,38.154,228.771,38.154"/>
<path d="M258.336,28.3c0,3.114-1.358,5.076-4.076,5.886l4.939,6.857h-4.049l-4.511-6.345h-4.187v6.345h-3.185V22.171
	h7.019c2.881,0,4.942,0.486,6.185,1.458C257.715,24.601,258.336,26.158,258.336,28.3 M254.098,30.973
	c0.646-0.559,0.972-1.454,0.972-2.688c0-1.231-0.332-2.079-0.998-2.538c-0.665-0.459-1.856-0.688-3.565-0.688h-4.051v6.75h3.971
	C252.225,31.81,253.45,31.531,254.098,30.973"/>
<rect x="266.167" y="22.171" width="3.187" height="18.873"/>
<path d="M290.575,23.817c1.313,1.099,1.971,2.791,1.971,5.077s-0.67,3.96-2.012,5.021
	c-1.341,1.063-3.396,1.592-6.168,1.592h-3.351v5.537h-3.185V22.17h6.479C287.172,22.17,289.26,22.721,290.575,23.817 M288.32,31.607
	c0.64-0.675,0.959-1.665,0.959-2.97c0-1.306-0.405-2.228-1.217-2.768c-0.808-0.54-2.078-0.81-3.806-0.81h-3.241v7.56h3.7
	C286.479,32.621,287.682,32.283,288.32,31.607"/>
<polygon points="306.667,25.087 306.667,41.044 303.479,41.044 303.479,25.087 297.756,25.087 297.756,22.171
	312.39,22.171 312.39,25.087 "/>
</svg>
